<svg width="126" height="125" viewBox="0 0 126 125" fill="none" xmlns="http://www.w3.org/2000/svg">
<g clip-path="url(#clip0_148_9)">
<path d="M41.9332 15.7676C37.5668 17.0074 31.8258 21.266 21.5297 30.9422C13.282 38.7047 10.3711 41.6426 10.3711 42.1817C10.3711 42.5321 9.75117 43.152 8.67305 43.9336C6.05859 45.8473 5.25 46.6289 5.25 47.3028C5.25 48.2461 7.00195 52.6395 8.59219 55.6852C11.1797 60.6176 13.8211 64.1485 14.9801 64.1485C15.3035 64.1485 16.6781 63.5555 18.0258 62.8278C19.7238 61.9383 20.9098 61.4801 21.8531 61.3992C23.4703 61.2375 27.9715 59.1621 30.6668 57.3024C32.284 56.1973 32.4727 56.1164 32.3379 56.6555C32.0684 57.8953 31.125 65.2266 30.6668 69.8086C30.3164 73.3664 30.2086 76.8973 30.2086 84.0938C30.2086 92.4762 30.2625 94.2012 30.8016 98.0824C31.7719 105.252 33.3082 111.586 34.0629 111.586C34.2516 111.586 34.3594 112.583 34.3594 114.308C34.3594 116.896 34.3863 117.057 35.1141 117.758C35.7609 118.405 36.1652 118.54 38.618 118.809C43.7121 119.402 52.7953 119.106 54.8707 118.297C55.8949 117.893 56.1914 117.004 56.1914 114.146C56.1914 112.637 56.2992 111.586 56.4609 111.586C56.8383 111.586 57.8895 109.376 58.725 106.815C59.1293 105.575 59.5066 104.578 59.5605 104.578C59.6145 104.578 59.9918 105.575 60.3961 106.815C61.2316 109.376 62.2828 111.586 62.6602 111.586C62.8219 111.586 62.9297 112.637 62.9297 114.146C62.9297 117.004 63.2262 117.893 64.2504 118.297C65.7598 118.89 70.6383 119.214 75.7324 119.025C84.5191 118.755 84.7617 118.621 84.7617 114.308C84.7617 112.233 84.8426 111.613 85.1391 111.505C85.9477 111.182 87.5918 103.931 88.4543 97.0313C89.1281 91.6137 89.1281 76.5469 88.4543 69.9434C87.9961 65.3883 87.0258 57.8414 86.7832 56.6824C86.6484 56.1434 86.8371 56.1973 88.4543 57.3024C91.2574 59.1891 95.6508 61.2106 97.4027 61.4262C98.4539 61.561 99.6398 62.0192 101.23 62.8817C102.497 63.5824 103.818 64.1485 104.141 64.1485C105.785 64.1485 110.502 56.7363 112.955 50.3215C113.467 49.0008 113.871 47.6531 113.871 47.3028C113.871 46.6289 112.685 45.443 110.313 43.7989C109.316 43.0981 108.75 42.5321 108.75 42.1817C108.75 41.5887 104.087 36.9797 95.7047 29.2172C84.5191 18.8672 79.425 15.552 74.7891 15.552C73.0371 15.552 72.498 15.6867 70.7461 16.4953C64.0348 19.6758 54.3047 19.568 47.7281 16.2528C46.057 15.4172 43.8738 15.2285 41.9332 15.7676ZM44.8711 21.1582C44.8711 23.6649 45.3023 25.4438 46.5691 28.0043C49.534 34.1227 56.0297 37.411 62.4445 36.0903C69.0211 34.7156 74.25 28.166 74.25 21.2391C74.25 19.7836 74.3309 19.4063 74.6543 19.4063C75.5168 19.4063 78.4816 20.5653 80.018 21.5086C83.6027 23.6649 91.4191 30.4571 99.7746 38.6238L104.411 43.1789L103.871 44.5535C102.766 47.4375 100.61 51.5344 98.7773 54.2836C97.7262 55.8469 96.8098 57.1406 96.7289 57.1406C96.675 57.1406 95.543 56.6016 94.2492 55.9547C90.9609 54.2836 88.3465 52.3699 86.3789 50.1598C85.4355 49.1356 84.4652 48.2192 84.1688 48.1383C83.4141 47.9496 82.4437 48.3809 81.9586 49.1086C81.5813 49.7016 81.5813 50.052 82.0664 52.8281C84.1687 64.957 84.8695 72.8004 84.8965 83.6895C84.8965 93.15 84.6539 96.4652 83.5219 102.557C82.4977 108.109 82.5516 108.001 81.0422 108.271C79.398 108.54 68.6437 108.54 66.6492 108.271L65.1129 108.055L64.5469 106.519C62.9027 102.125 61.9055 96.7887 61.6629 90.886C61.4742 86.1422 61.2047 85.4414 59.5605 85.4414C57.9164 85.4414 57.6469 86.1422 57.4582 90.886C57.2156 96.7887 56.2184 102.125 54.5742 106.519L54.0082 108.055L52.4719 108.271C50.4773 108.54 40.343 108.54 38.3484 108.271C36.866 108.055 36.7852 108.001 36.5156 107.058C36.0035 105.225 34.9523 99.0797 34.575 95.8184C34.0629 91.0207 34.1438 75.4957 34.7098 69.8086C35.168 65.3883 36.4348 56.2512 37.1625 52.1543C37.6746 49.2973 37.1895 48.1653 35.4375 48.1653C34.8176 48.1653 34.1977 48.6235 32.4188 50.4563C31.1789 51.7231 29.4539 53.2324 28.5645 53.8254C27.1629 54.7688 22.7426 57.1406 22.3922 57.1406C22.3113 57.1406 21.3949 55.8469 20.3438 54.2836C18.5109 51.5344 16.3547 47.4375 15.2496 44.5535L14.7105 43.1789L19.3465 38.6238C23.9555 34.1496 30.0738 28.5434 33.6586 25.5246C37.3242 22.452 40.316 20.5653 42.8496 19.7836C44.8172 19.1637 44.8711 19.1907 44.8711 21.1582ZM52.418 22.1016C57.0539 23.1797 63.0375 23.0719 67.916 21.8321C69.075 21.5356 70.0992 21.3469 70.1801 21.4278C70.4227 21.6973 69.641 24.9047 68.9672 26.3063C67.916 28.5164 66.3797 30.0527 64.0887 31.1848C62.175 32.1281 61.8785 32.209 59.5605 32.209C57.2426 32.209 56.9461 32.1281 55.0594 31.1848C52.9301 30.1336 51.6094 28.9207 50.4504 26.9262C49.7227 25.7133 48.9141 23.018 48.9141 21.886C48.9141 21.3469 49.0219 21.266 49.534 21.4008C49.8574 21.5086 51.1512 21.8321 52.418 22.1016ZM13.309 50.025C14.1176 51.75 15.4922 54.2297 16.3547 55.5504C17.2172 56.8981 17.918 58.084 17.918 58.1918C17.918 58.2996 17.4059 58.6231 16.8129 58.9195L15.6809 59.4047L15.0609 58.6231C13.4977 56.7094 9.83203 49.5399 9.83203 48.4348C9.83203 48.0844 11.1797 46.9254 11.584 46.9254C11.7457 46.9254 12.5273 48.327 13.309 50.025ZM108.48 47.4914C108.939 47.8149 109.289 48.2192 109.289 48.4078C109.289 49.5399 105.623 56.6824 104.06 58.6231L103.44 59.4047L102.308 58.9195C101.715 58.6231 101.203 58.2996 101.203 58.1918C101.203 58.084 101.904 56.8981 102.766 55.5504C103.629 54.2297 105.004 51.75 105.812 50.025C106.594 48.327 107.375 46.8985 107.483 46.8985C107.591 46.8985 108.049 47.168 108.48 47.4914ZM52.1484 113.634V114.739L50.5043 114.928C48.348 115.144 42.2027 115.144 40.0465 114.928L38.4023 114.739V113.634V112.529H45.2754H52.1484V113.634ZM80.6648 113.607C80.584 114.659 80.557 114.686 79.3711 114.874C77.7809 115.117 70.7461 115.144 68.6168 114.928L66.9727 114.739V113.634V112.529H73.8457H80.7457L80.6648 113.607Z" fill="#FCFCFC"/>
<path d="M57.9976 43.3945C56.2187 44.7961 57.2698 47.707 59.5608 47.707C60.5581 47.707 61.2319 47.2758 61.744 46.3324C62.5526 44.7152 61.3937 42.8555 59.5608 42.8555C59.0757 42.8555 58.3749 43.098 57.9976 43.3945Z" fill="#FCFCFC"/>
<path d="M58.2666 57.4371C58.024 57.5719 57.6197 58.084 57.3772 58.5152C56.8381 59.5664 57.0807 60.7254 57.9971 61.4531C59.3986 62.5582 61.6088 61.8035 61.9861 60.1324C62.1748 59.216 61.5818 57.8414 60.8002 57.4101C60.1264 57.0597 58.8865 57.0867 58.2666 57.4371Z" fill="#FCFCFC"/>
<path d="M58.6438 71.7762C58.2934 71.9379 57.7543 72.423 57.4579 72.8273C56.9727 73.4742 56.9457 73.6898 57.2422 74.6602C57.5657 75.7383 58.5629 76.5469 59.5602 76.5469C60.5036 76.5469 61.5278 75.7383 61.8782 74.741C62.1477 73.9055 62.1207 73.6359 61.7164 72.8812C61.4469 72.3691 60.9079 71.884 60.4227 71.7223C59.4254 71.3719 59.4254 71.3719 58.6438 71.7762Z" fill="#FCFCFC"/>
</g>
<defs>
<clipPath id="clip0_148_9">
<rect width="125" height="125" fill="white" transform="translate(0.5)"/>
</clipPath>
</defs>
</svg>
