<svg width="126" height="125" viewBox="0 0 126 125" fill="none" xmlns="http://www.w3.org/2000/svg">
<g clip-path="url(#clip0_148_32)">
<path d="M81.2003 7.54388C79.3448 8.39838 78.3927 10.0341 78.3927 12.329V13.6718H49.3888C21.3126 13.6718 20.3116 13.6962 18.4806 14.1601C13.7931 15.3564 9.91123 18.5058 7.83603 22.8271C6.15146 26.2939 6.10263 26.9531 6.17587 41.9921C6.24912 55.2001 6.24912 55.2978 6.78623 56.2988C7.90927 58.3984 9.93564 59.5703 12.4503 59.5703H13.6954V61.0839C13.6954 64.0136 15.3067 65.8935 17.9923 66.1132L19.3106 66.2109V67.749C19.3106 69.6533 19.8966 70.5566 21.1173 70.5566C22.4356 70.5566 22.9727 69.7509 22.9727 67.7978V66.162H24.0226C26.6593 66.1376 28.3683 64.3798 28.588 61.4257L28.7101 59.6923L30.297 59.5458C32.8116 59.3261 34.7159 58.0566 35.546 56.0302C35.7169 55.6152 36.4981 52.9296 37.255 50.0488C38.7198 44.4824 38.9395 43.8964 39.8673 43.0419C41.2345 41.748 41.2833 41.748 54.711 41.748C68.1388 41.748 68.1876 41.748 69.5548 43.0419C70.9952 44.3847 70.9464 43.7744 71.0685 59.5214L71.1905 74.0234L71.7765 74.4872C72.5577 75.122 73.5587 75.0732 74.1935 74.3896L74.7306 73.8281V59.3749C74.7306 45.3857 74.7061 44.8974 74.2179 43.579C73.5587 41.7968 71.6788 39.7704 69.8966 38.8915L68.505 38.2079H54.711H40.9171L39.5743 38.8915C37.9142 39.746 36.4005 41.1865 35.6925 42.5781C35.4239 43.164 34.5206 46.0449 33.7394 49.0234C32.2013 54.7607 32.006 55.2734 31.2735 55.664C30.9806 55.8105 27.2452 55.9081 21.044 55.9081H11.2784L10.5948 55.3222L9.91123 54.7363L9.83798 41.7724C9.76474 27.3193 9.78916 26.9531 11.3761 23.9501C12.9386 20.9716 16.088 18.4814 19.2618 17.7245C20.7511 17.3583 24.8282 17.3339 63.9884 17.3828L107.079 17.456L108.495 18.0175C110.497 18.8476 112.841 21.0693 113.866 23.1689L114.648 24.7802L114.77 49.3896L114.892 74.0234L115.478 74.4872C116.161 75.0488 117.138 75.0732 117.821 74.5605C118.285 74.2187 118.31 73.8281 118.432 64.2578L118.554 54.3212L120.751 54.1992C123.119 54.0527 123.559 53.8818 124.584 52.8076C125.976 51.3427 126 51.1962 126 40.454C126 30.6152 126 30.5908 125.439 29.5165C125.121 28.9306 124.413 28.1249 123.852 27.7343C122.948 27.0995 122.582 27.0019 120.678 26.9042L118.529 26.8066L118.261 25.0976C117.65 21.1913 114.745 17.1874 111.181 15.3076C108.373 13.8427 107.226 13.6718 99.7061 13.6718H93.0411V12.329C93.0411 10.0341 92.089 8.39838 90.2335 7.54388C89.4278 7.17767 88.6466 7.08002 85.7169 7.08002C82.7872 7.08002 82.006 7.17767 81.2003 7.54388ZM89.086 11.0351C89.2569 11.206 89.379 11.8652 89.379 12.4999V13.6718H85.7169H82.0548V12.4999C82.0548 11.8652 82.1768 11.206 82.3477 11.0351C82.5431 10.8398 83.6417 10.7421 85.7169 10.7421C87.7921 10.7421 88.8907 10.8398 89.086 11.0351ZM121.947 30.9081C122.289 31.2255 122.338 32.4706 122.338 40.6249C122.338 47.5585 122.265 50.0244 122.045 50.2441C121.874 50.415 121.068 50.5371 120.092 50.5371H118.432V40.5273V30.5175H119.994C121.093 30.5175 121.679 30.6396 121.947 30.9081ZM24.9259 60.7421C24.9259 61.3769 24.8038 62.0361 24.6329 62.207C24.2179 62.622 18.0655 62.622 17.6505 62.207C17.4796 62.0361 17.3575 61.3769 17.3575 60.7421V59.5703H21.1417H24.9259V60.7421Z" fill="#FCFCFC"/>
<path d="M90.4529 43.8965C84.9109 45.5322 80.7361 49.9023 79.4665 55.3711C78.9538 57.5195 79.1247 61.2793 79.8328 63.4766C81.2732 67.9932 85.155 71.8994 89.7449 73.4131C91.405 73.9502 92.1374 74.0723 94.5056 74.0723C97.0203 74.0723 97.533 73.999 99.3884 73.3398C102.05 72.4121 103.856 71.1914 105.834 69.0674C112.181 62.207 110.863 51.2207 103.026 45.9961C100.365 44.2383 98.3874 43.6279 94.8718 43.5303C92.5769 43.4814 91.6247 43.5547 90.4529 43.8965ZM97.9968 47.6074C103.856 49.4141 107.396 55.7129 105.858 61.5967C105.297 63.7695 104.344 65.4053 102.709 67.0166C98.1677 71.5576 91.2585 71.6797 86.5466 67.3096C83.8855 64.8682 82.616 61.6211 82.8601 58.0078C83.0066 55.542 83.7146 53.6377 85.1794 51.6846C88.0847 47.8516 93.3581 46.167 97.9968 47.6074Z" fill="#FCFCFC"/>
<path d="M91.6496 51.416C90.2335 51.9287 88.256 53.7597 87.4992 55.2734C86.5714 57.08 86.4494 59.6679 87.1818 61.6211C87.841 63.3545 89.4279 65.0634 91.2101 65.9179C92.9435 66.7968 96.0441 66.7724 97.8019 65.9179C102.587 63.5742 103.808 57.2998 100.219 53.4668C98.632 51.7578 97.2404 51.1718 94.7501 51.0986C93.3585 51.0498 92.3332 51.1718 91.6496 51.416ZM96.4591 55.0537C97.6554 55.664 98.4855 57.0068 98.6076 58.4716C98.7052 59.5703 98.6076 59.9853 98.0705 60.8886C96.923 62.8662 94.5792 63.5009 92.5285 62.4267C88.7443 60.4248 90.1603 54.6875 94.4328 54.6875C95.1652 54.6875 96.0685 54.8584 96.4591 55.0537Z" fill="#FCFCFC"/>
<path d="M4.75977 79.1992C3.66113 79.6875 2.26953 81.0058 1.65918 82.1289C1.12207 83.1054 1.12207 83.2763 1.12207 93.872V104.614L1.92773 106.25C3.58789 109.644 6.66406 111.328 11.1563 111.328H12.7188V112.891C12.7188 114.746 12.9873 115.576 13.8906 116.528C15.209 117.92 15.6729 118.042 19.7988 118.042C23.9736 118.042 24.5352 117.895 25.7314 116.455C26.5127 115.552 26.8789 114.307 26.8789 112.598V111.328H59.8379H92.7969V113.11C92.7969 114.648 92.8945 115.039 93.5049 115.991C94.5547 117.651 95.4824 118.018 99.0957 118.115C103.539 118.262 105.224 117.7 106.225 115.723C106.566 115.039 106.713 114.282 106.713 113.037V111.328H108.495C112.865 111.304 116.21 109.399 117.772 106.006C118.31 104.883 118.31 104.59 118.383 92.3584C118.456 80.0537 118.432 79.834 117.943 79.3457C117.455 78.8574 117.455 78.8574 61.4981 78.8574C15.2578 78.8818 5.39453 78.9306 4.75977 79.1992ZM11.498 83.789C11.498 86.3769 12.3037 88.0127 14.0127 88.9404C14.9648 89.4287 15.4287 89.4775 20.3359 89.5508C26.708 89.6484 27.9531 89.4775 29.2959 88.1836C30.3701 87.1582 30.7852 85.9863 30.7852 83.9111V82.5195H38.3535H45.9219V95.0927V107.666H27.5625C7.78711 107.642 8.25098 107.666 6.51758 106.372C4.78418 105.054 4.78418 105.029 4.71094 93.9209L4.6377 83.9599L5.37012 83.2519C6.07813 82.5195 6.12695 82.5195 8.78809 82.5195H11.498V83.789ZM27.123 83.789C27.123 85.8886 27.3428 85.8154 21.4834 85.8886C15.2578 85.9863 15.1602 85.9375 15.1602 83.8623V82.5195H21.1416H27.123V83.789ZM114.77 93.0664C114.77 102.832 114.721 103.711 114.306 104.639C113.744 105.884 112.328 107.056 110.961 107.397C110.229 107.593 100.683 107.666 79.7598 107.666H49.584V95.0927V82.5195H82.1768H114.77V93.0664ZM23.2168 112.524C23.2168 114.331 22.9482 114.502 19.8965 114.502C16.6006 114.502 16.3809 114.38 16.3809 112.671V111.328H19.7988H23.2168V112.524ZM103.051 112.769C103.051 113.843 102.953 114.233 102.66 114.355C101.928 114.624 97.0693 114.526 96.752 114.209C96.5811 114.038 96.459 113.33 96.459 112.622V111.328H99.7549H103.051V112.769Z" fill="#FCFCFC"/>
</g>
<defs>
<clipPath id="clip0_148_32">
<rect width="125" height="125" fill="white" transform="translate(0.5)"/>
</clipPath>
</defs>
</svg>
