<svg width="126" height="125" viewBox="0 0 126 125" fill="none" xmlns="http://www.w3.org/2000/svg">
<g clip-path="url(#clip0_148_70)">
<path d="M92.6957 12.2888C92.223 12.407 83.7152 15.9046 73.7894 20.0876C63.84 24.2707 51.7873 29.3517 46.9662 31.3605C42.1687 33.3693 37.7966 35.2835 37.2531 35.5671C35.3388 36.6779 33.6845 38.9703 33.3064 41.1208C33.1646 41.8062 32.9519 42.0425 32.0775 42.5152C28.4617 44.4294 23.5697 52.6537 18.5595 65.2263C17.4488 68.015 16.2908 70.7564 15.9599 71.2999C15.6054 71.9144 14.8492 72.6234 13.9039 73.2615C12.4623 74.1831 10.5953 75.932 9.50816 77.3263C8.65738 78.4371 7.38121 81.3675 7.02672 83.0691C6.2941 86.5904 6.69586 89.9935 8.44469 94.4365C12.7459 105.473 17.9923 109.325 27.5636 108.451C29.9505 108.214 30.9904 108.238 33.8027 108.569C37.9384 109.042 39.9236 109.042 42.8541 108.593C47.9824 107.836 52.2599 105.449 55.0486 101.81C55.5922 101.125 56.7974 99.1867 57.7191 97.4851C58.6644 95.8072 60.0588 93.4912 60.815 92.3804C62.4693 89.9699 66.1797 85.3378 66.7468 84.9833C67.0777 84.7943 67.5031 85.1015 69.2519 86.7794C71.6625 89.0955 72.4187 89.4499 74.7111 89.2845C77.3343 89.0955 80.2884 87.2048 81.2338 85.0779C81.541 84.3689 81.7773 84.1562 82.0373 84.2507C84.8496 85.3378 87.8509 84.5816 89.9543 82.2183C90.9941 81.1076 91.8685 79.2642 92.1049 77.8462L92.2467 76.8773L93.7119 76.7591C96.3351 76.5464 98.533 74.9394 99.7855 72.2925C100.849 70.0474 100.896 67.8968 99.9273 65.6753C99.7855 65.3681 100.778 64.8718 105.268 62.9812C108.293 61.705 111.247 60.4289 111.838 60.1453C113.303 59.389 114.769 57.9001 115.549 56.2931C116.116 55.1115 116.21 54.6624 116.21 52.8191V50.6921L109.38 34.5037C101.605 16.0464 101.653 16.141 100.424 14.7466C98.6984 12.7851 95.1535 11.6507 92.6957 12.2888ZM95.7916 15.8574C97.1859 16.33 98.1549 17.2281 98.8638 18.7642C99.242 19.5441 99.5492 20.3003 99.5492 20.4421C99.5492 20.6076 42.925 44.6185 38.1039 46.5091C37.8203 46.6273 36.8513 44.1458 36.7332 42.9878C36.5914 41.5935 37.2767 40.0101 38.3638 39.1357C38.8129 38.7812 41.4125 37.5523 44.1302 36.3943C81.4464 20.7021 92.672 15.9755 93.1683 15.8337C94.0427 15.5501 94.8935 15.5738 95.7916 15.8574ZM102.125 26.4449C102.669 27.6738 103.094 28.7845 103.094 28.9263C103.094 29.0681 100.825 30.1316 98.084 31.2896C95.3189 32.4476 81.4701 38.2849 67.314 44.2404C53.158 50.1958 41.5306 55.0169 41.4834 54.9933C41.2234 54.7097 39.3328 49.865 39.4746 49.7705C39.5691 49.7232 42.9959 48.2816 47.0843 46.5564C57.6482 42.1371 81.0447 32.2822 91.7504 27.7683C96.7605 25.665 100.92 23.9871 101.014 24.0816C101.085 24.1525 101.605 25.216 102.125 26.4449ZM108.624 41.8771C110.822 47.1236 112.665 51.8501 112.736 52.4173C112.878 53.6935 112.311 55.2296 111.295 56.1749C110.728 56.7185 107.017 58.3964 96.7369 62.7212C89.1507 65.9353 82.9117 68.5113 82.8644 68.464C82.8172 68.4167 82.8881 67.9914 83.0299 67.4714C83.8097 64.6355 81.2574 60.4289 77.6416 58.5855C76.1763 57.8529 75.8927 57.782 73.9312 57.782C71.1662 57.782 70.6935 58.0419 65.3289 62.2486C57.8609 68.1095 52.9453 71.4654 51.4564 71.749C50.3693 71.938 49.4004 71.3708 48.2896 69.882C47.1316 68.3222 46.6826 67.4242 44.5793 62.4376L42.8777 58.3728L43.6103 58.0419C44.0357 57.8765 54.4105 53.5044 66.6996 48.3288C78.9886 43.1769 92.483 37.4814 96.7132 35.6853C100.944 33.8892 104.441 32.4003 104.512 32.4003C104.583 32.3767 106.426 36.6542 108.624 41.8771ZM38.5529 57.2384C41.1998 63.5247 43.7521 69.3621 44.272 70.2601C46.1863 73.4742 48.6914 75.3884 51.031 75.3884C53.3943 75.3884 57.2937 72.9542 66.9123 65.5335C69.63 63.4066 72.1351 61.5869 72.4896 61.4451C74.1675 60.807 76.5781 61.6105 78.1142 63.3357C79.0359 64.3519 79.6976 65.5808 79.6976 66.3134C79.6976 66.5497 76.5308 69.8583 72.655 73.7105C61.7367 84.5343 58.499 88.5992 53.7015 97.3906C51.6691 101.125 48.4314 103.653 44.3666 104.693C41.5543 105.402 38.9547 105.52 34.5589 105.048C31.6994 104.764 29.9505 104.693 28.0599 104.835C22.7425 105.213 20.4265 104.788 18.0869 103.015C15.6054 101.172 12.864 96.5634 11.1625 91.4824C8.98824 85.007 10.6662 79.7132 16.0072 76.0974C18.5123 74.3958 19.174 73.3796 21.3009 67.8968C24.9404 58.4673 29.3125 50.054 32.2193 46.9109C32.7629 46.3201 33.33 45.8474 33.4955 45.8474C33.6373 45.8474 35.9297 50.9757 38.5529 57.2384ZM97.0441 68.1804C97.375 69.8583 96.1933 72.0798 94.5627 72.9306C93.7591 73.3324 92.2939 73.356 91.5849 72.9542C90.805 72.5052 88.3472 70.0947 88.5836 70.0238C88.7017 69.9765 90.4978 69.1966 92.5775 68.3222C96.7132 66.5734 96.7369 66.5497 97.0441 68.1804ZM86.5984 73.3324C88.04 74.7031 88.4418 75.223 88.5599 75.932C88.9144 77.7517 87.8037 79.9023 86.0785 80.7767C84.8259 81.4148 83.8806 81.3203 82.4154 80.4695C81.3519 79.8314 76.6963 75.2466 76.909 75.0339C77.0508 74.8921 84.4242 71.6544 84.6605 71.6308C84.7314 71.6308 85.6058 72.3871 86.5984 73.3324ZM78.2797 82.5492C78.2797 84.1089 76.1527 85.7869 74.1675 85.7869C73.364 85.7869 73.0568 85.5978 71.4025 83.9671C70.3627 82.9746 69.5355 82.0765 69.5355 81.982C69.5355 81.8638 70.5045 80.7531 71.7097 79.5242L73.8839 77.2318L76.0818 79.4769C78.0197 81.4384 78.2797 81.7929 78.2797 82.5492Z" fill="#FCFCFC"/>
<path d="M92.5063 43.0115C88.5596 44.6658 85.1328 46.2255 84.8729 46.4619C84.6365 46.6746 84.4238 47.1236 84.4238 47.4544C84.4238 48.3761 88.2051 57.1675 88.7723 57.5457C89.0322 57.7347 89.434 57.9001 89.6467 57.9001C90.2139 57.9001 104.772 51.8029 105.292 51.3539C105.504 51.1412 105.693 50.6449 105.693 50.2431C105.693 49.3451 102.054 40.6482 101.51 40.2228C101.298 40.081 100.778 39.9392 100.4 39.9628C99.9979 39.9628 96.4529 41.3335 92.5063 43.0115ZM100.589 46.4855C101.179 47.9035 101.581 49.1087 101.487 49.2033C101.274 49.3923 91.1119 53.6462 90.852 53.6462C90.592 53.6462 88.4178 48.5888 88.6305 48.4943C88.725 48.4707 91.1355 47.4308 93.9951 46.2255C96.8547 44.9966 99.2652 44.0041 99.3598 43.9804C99.4307 43.9568 99.9979 45.0912 100.589 46.4855Z" fill="#FCFCFC"/>
</g>
<defs>
<clipPath id="clip0_148_70">
<rect width="125" height="125" fill="white" transform="translate(0.5)"/>
</clipPath>
</defs>
</svg>
