<svg width="126" height="125" viewBox="0 0 126 125" fill="none" xmlns="http://www.w3.org/2000/svg">
<g filter="url(#filter0_d_148_79)">
<path d="M58.1794 12.2059C48.4847 13.0637 38.4509 17.173 30.7311 23.4566C28.457 25.2918 24.8664 28.9223 23.0711 31.1764C18.503 36.9014 14.7528 44.6412 13.1969 51.5831C12.2194 55.9317 12 58.0661 12 63.0531C12 68.0401 12.2194 70.1745 13.1969 74.5231C14.7728 81.6046 18.6227 89.4641 23.3503 95.2689C25.1856 97.543 28.8161 101.134 31.0702 102.929C36.7952 107.497 44.535 111.247 51.4769 112.803C55.8255 113.781 57.9599 114 62.9469 114C67.9339 114 70.0683 113.781 74.4169 112.803C79.6233 111.646 86.4455 108.734 90.9338 105.762C98.6935 100.595 104.658 93.8127 108.747 85.4945C112.039 78.772 113.654 72.3688 113.954 64.8883C114.412 52.9595 110.602 41.29 103.082 31.5354C101.406 29.3611 96.6389 24.5936 94.4646 22.918C83.9321 14.7992 71.2452 11.049 58.1794 12.2059ZM69.7292 15.8764C72.3823 16.2753 76.1723 17.1929 78.7855 18.0906C83.0544 19.5667 88.7794 22.7185 92.5496 25.7107C94.3648 27.127 98.873 31.6352 100.289 33.4504C103.282 37.2206 106.433 42.9456 107.909 47.2145C109.765 52.6603 110.503 57.1286 110.503 63.0531C110.503 67.9004 110.203 70.4139 109.126 74.7226C104.877 91.5786 91.4724 104.984 74.6164 109.232C70.3077 110.31 67.7942 110.609 62.9469 110.609C57.0224 110.609 52.5541 109.871 47.1083 108.016C42.8394 106.539 37.1144 103.388 33.3442 100.396C31.529 98.9792 27.0208 94.471 25.6045 92.6558C22.6123 88.8856 19.4605 83.1606 17.9844 78.8917C17.0867 76.2387 16.1691 72.4885 15.7303 69.6359C15.2515 66.4642 15.2515 59.642 15.7303 56.4703C16.5082 51.3038 17.9046 46.7956 20.1387 42.2076C22.6522 37.081 25.1457 33.5901 29.3148 29.421C32.2471 26.5086 33.7831 25.2319 36.8551 23.1972C43.1785 19.0281 50.659 16.395 58.4586 15.5971C60.9122 15.3378 67.1759 15.4973 69.7292 15.8764Z" fill="#FCFCFC"/>
<path d="M57.9595 20.7832C45.133 22.2594 33.4036 29.8595 26.5216 41.1102C23.4097 46.2567 21.3351 52.3209 20.6569 58.3651C20.2181 62.3547 20.4574 67.4813 21.2753 71.6304C23.5294 82.9409 30.8503 93.2739 41.0038 99.4777C50.0202 104.963 60.9117 106.838 71.524 104.724C82.8345 102.47 93.1675 95.149 99.3713 84.9955C105.136 75.5003 106.892 63.9505 104.239 52.9393C102.423 45.4388 98.5933 38.6566 92.968 33.0313C86.1857 26.249 77.7478 22.0998 68.2725 20.863C65.7391 20.5439 60.4729 20.504 57.9595 20.7832ZM67.9733 24.2542C76.7105 25.4511 84.4104 29.2611 90.5742 35.425C96.778 41.6288 100.548 49.2688 101.765 58.1656C102.144 60.9782 102.064 66.4839 101.585 69.2367C100.109 77.6547 96.4389 84.816 90.5742 90.6806C84.7096 96.5453 77.5483 100.216 69.1303 101.692C66.3775 102.171 60.8718 102.25 58.0592 101.871C49.1624 100.655 41.5224 96.8844 35.3186 90.6806C27.9179 83.28 23.8486 73.4856 23.8486 63.0528C23.8486 46.6756 34.1018 31.994 49.4617 26.3288C55.1668 24.2342 62.0887 23.4563 67.9733 24.2542Z" fill="#FCFCFC"/>
<path d="M47.5868 41.1302C43.3379 41.968 40.226 46.4364 40.9641 50.6853C41.5426 53.9767 43.5972 56.3904 46.6892 57.4875C47.6467 57.8067 48.2451 57.8865 49.7013 57.8266C51.337 57.7668 51.6961 57.667 53.0126 57.0088C55.8851 55.5925 57.5807 53.0391 57.7203 49.8674C57.8001 48.4511 57.7203 47.8926 57.3613 46.8154C56.3838 43.8631 53.8903 41.7087 50.7785 41.1103C49.5616 40.8709 48.8435 40.8909 47.5868 41.1302ZM51.5764 44.9004C52.494 45.3592 53.4714 46.3167 53.9103 47.1545C54.409 48.1319 54.4888 50.1068 54.0699 51.2239C53.252 53.3583 51.2971 54.5951 48.9832 54.4355C47.527 54.3158 46.729 53.9767 45.8114 53.0591C43.8167 51.0643 43.7369 47.9923 45.6519 45.9576C47.1679 44.3618 49.6414 43.903 51.5764 44.9004Z" fill="#FCFCFC"/>
<path d="M74.9556 41.1109C71.9434 41.7492 69.5497 43.8637 68.5124 46.796C67.894 48.6113 68.0336 51.1247 68.8715 52.92C69.7492 54.7752 71.0458 56.1117 72.881 57.0093C74.1975 57.6676 74.5566 57.7674 76.1923 57.8272C78.3068 57.907 79.7431 57.508 81.4187 56.371C85.2686 53.7179 86.1862 48.0926 83.3736 44.4222C82.4161 43.1655 80.92 42.0285 79.6034 41.5298C78.3068 41.051 76.1724 40.8516 74.9556 41.1109ZM78.1273 44.6217C78.9052 44.8611 79.4638 45.2002 80.142 45.8784C82.1568 47.8932 82.1368 51.025 80.0822 53.0597C79.1646 53.9773 78.3667 54.3164 76.9105 54.4361C73.7188 54.6555 71.3051 52.2219 71.5644 49.0302C71.6841 47.6139 72.0232 46.816 72.9408 45.9183C74.397 44.4621 76.1125 44.0233 78.1273 44.6217Z" fill="#FCFCFC"/>
<path d="M46.4704 68.6981C43.4782 69.8551 41.5433 72.2089 40.9648 75.4205C40.0073 80.8464 45.0741 85.9331 50.4999 85.0354C53.8112 84.4769 56.2848 82.4222 57.3819 79.3104C58.0003 77.4752 57.8607 74.9817 57.0229 73.1664C56.185 71.3911 54.6092 69.8152 52.8338 68.9774C51.6569 68.4388 51.218 68.339 49.5823 68.2991C47.9865 68.2393 47.4878 68.3191 46.4704 68.6981ZM51.4773 72.1092C53.4322 73.0068 54.5094 74.862 54.3299 77.0762C54.2102 78.4925 53.8711 79.2904 52.9535 80.1881C50.2007 82.9409 45.5728 81.8238 44.4956 78.1334C43.2588 73.9045 47.4878 70.2341 51.4773 72.1092Z" fill="#FCFCFC"/>
<path d="M74.018 68.5984C71.6243 69.4163 69.9287 70.9323 68.8715 73.1864C68.0336 74.9817 67.894 77.4951 68.5124 79.3104C69.6095 82.4023 72.0232 84.457 75.3146 85.0354C80.7405 85.9929 85.8272 80.9262 84.9295 75.4804C84.2114 71.1717 80.7803 68.2194 76.5314 68.2393C75.6338 68.2593 74.6165 68.3989 74.018 68.5984ZM78.8255 72.0893C81.9174 73.6851 82.5557 77.7944 80.1221 80.228C78.1073 82.2627 74.9755 82.2427 72.9408 80.1881C72.0232 79.2905 71.6841 78.4925 71.5644 77.0762C71.3849 74.882 72.4421 73.0268 74.417 72.0893C75.2548 71.6903 75.6537 71.6305 76.8107 71.6903C77.5887 71.7302 78.4863 71.9097 78.8255 72.0893Z" fill="#FCFCFC"/>
</g>
<defs>
<filter id="filter0_d_148_79" x="-3.5" y="0" width="133" height="133" filterUnits="userSpaceOnUse" color-interpolation-filters="sRGB">
<feFlood flood-opacity="0" result="BackgroundImageFix"/>
<feColorMatrix in="SourceAlpha" type="matrix" values="0 0 0 0 0 0 0 0 0 0 0 0 0 0 0 0 0 0 127 0" result="hardAlpha"/>
<feOffset dy="4"/>
<feGaussianBlur stdDeviation="2"/>
<feComposite in2="hardAlpha" operator="out"/>
<feColorMatrix type="matrix" values="0 0 0 0 0 0 0 0 0 0 0 0 0 0 0 0 0 0 0.25 0"/>
<feBlend mode="normal" in2="BackgroundImageFix" result="effect1_dropShadow_148_79"/>
<feBlend mode="normal" in="SourceGraphic" in2="effect1_dropShadow_148_79" result="shape"/>
</filter>
</defs>
</svg>
