<svg width="126" height="125" viewBox="0 0 126 125" fill="none" xmlns="http://www.w3.org/2000/svg">
<path d="M62.2676 10.4736C61.7793 10.5957 61.291 11.3525 59.6553 14.5508L57.6533 18.4814L53.6006 19.043C48.9863 19.6777 48.3516 19.9707 48.3516 21.3623C48.3516 22.0947 48.6934 22.5342 51.4277 25.2197L54.5283 28.2227L53.8691 31.8848C53.5273 33.8867 53.2344 35.8887 53.2344 36.3281C53.2344 37.3047 53.9668 38.0859 54.8945 38.0859C55.2607 38.0859 57.1406 37.2559 59.0693 36.2549C60.9736 35.2539 62.6826 34.4238 62.8047 34.4238C62.9512 34.4238 64.6357 35.2539 66.5645 36.2549C68.4688 37.2559 70.3242 38.0859 70.6904 38.0859C71.4229 38.0859 72.5215 37.085 72.5215 36.4502C72.4971 36.2061 72.2041 34.2773 71.8379 32.1777L71.1543 28.3447L74.1572 25.3418C75.8174 23.6816 77.2334 22.1436 77.3066 21.8994C77.502 21.2647 76.9893 20.1172 76.3545 19.8486C76.0615 19.7022 74.0352 19.3359 71.8867 19.043L67.9561 18.457L66.1494 14.8438C64.001 10.5225 63.6836 10.1563 62.2676 10.4736ZM65.7344 21.5576C66.0273 21.7529 67.1748 22.0459 68.249 22.1924C71.8867 22.7295 71.7647 22.4609 69.4453 24.7314C67.126 27.002 67.1748 26.8799 67.7607 30.2734C67.9561 31.4209 68.127 32.4951 68.127 32.6416C68.127 32.8125 67.126 32.4219 65.7832 31.7139C64.5137 31.0303 63.1953 30.4443 62.8779 30.4443C62.5605 30.4443 61.1934 31.0303 59.8262 31.7383L57.3359 33.0078L57.4824 32.2998C57.9707 30.0537 58.3125 27.5146 58.1904 27.1484C58.1172 26.9287 57.165 25.8301 56.0908 24.7314C53.8447 22.4609 53.7471 22.6807 57.3848 22.1924C58.5078 22.0459 59.6309 21.8262 59.875 21.7041C60.1191 21.582 60.876 20.2881 61.5596 18.8477L62.8291 16.2354L63.9766 18.7256C64.6846 20.1904 65.3926 21.3379 65.7344 21.5576Z" fill="#FCFCFC"/>
<path d="M37.8779 19.1894C37.5605 19.4336 36.7549 20.7764 36.0713 22.1924C35.4121 23.6084 34.8262 24.8047 34.7773 24.8535C34.7529 24.9023 33.5811 25.0976 32.2139 25.293C30.8223 25.4883 29.4307 25.708 29.1133 25.7812C28.2588 25.9521 27.5996 26.7578 27.5996 27.6367C27.5996 28.3447 27.917 28.7353 29.8945 30.6396L32.1895 32.8613L31.7256 35.2783C31.1396 38.501 31.1396 39.4287 31.75 40.0391C32.5068 40.7959 33.2393 40.6494 36.2178 39.1602L38.9521 37.7685L41.5645 39.1602C44.543 40.7471 45.3975 40.8447 46.2275 39.7705C46.6914 39.1113 46.6914 39.1113 46.1787 36.0107L45.6416 32.8857L47.9854 30.5176C49.4258 29.0527 50.3047 27.9541 50.3047 27.6367C50.3047 27.3437 50.0605 26.831 49.7676 26.4893C49.3037 25.9521 48.8398 25.8057 46.8867 25.5127C45.6172 25.3174 44.2256 25.0976 43.7861 25.0244C43.0781 24.9023 42.9072 24.6582 41.6865 22.1191C40.0752 18.7988 39.3184 18.1885 37.8779 19.1894ZM41.1982 28.2715C41.5645 28.418 42.4678 28.6133 43.2002 28.6865L44.4941 28.8574L43.2246 30.1514C41.833 31.5674 41.7598 31.8359 42.1016 34.1553L42.2969 35.4736L40.9541 34.6924C39.2939 33.7402 38.708 33.7402 36.8281 34.6924C35.7295 35.2539 35.3877 35.3516 35.4854 35.0586C35.583 34.8389 35.7051 33.96 35.8027 33.1055L35.9736 31.543L34.7041 30.2002L33.459 28.8818L35.0703 28.6133C35.9492 28.4668 36.8281 28.2226 37.0479 28.0518C37.2432 27.8809 37.7314 27.0752 38.1465 26.2695L38.9033 24.8047L39.709 26.3916C40.2705 27.5391 40.71 28.0762 41.1982 28.2715Z" fill="#FCFCFC"/>
<path d="M85.6562 19.2628C85.3145 19.5313 84.5332 20.8985 83.874 22.3145C82.5557 25.171 82.9219 24.9268 79.3574 25.3907C76.1104 25.8301 75.4512 26.2208 75.4512 27.7589C75.4512 28.296 75.915 28.9063 77.7461 30.6641L80.041 32.8858L79.5771 35.3028C78.9912 38.501 78.9912 39.4288 79.6016 40.0391C80.3584 40.796 81.1641 40.6251 84.0938 39.1358L86.8281 37.7686L89.4404 39.1602C92.3945 40.7471 93.249 40.8448 94.0791 39.7706C94.543 39.1114 94.543 39.1114 94.0303 36.0108L93.4932 32.8858L95.8369 30.5176C97.2773 29.0528 98.1562 27.9542 98.1562 27.6368C98.1562 27.3438 97.9121 26.8311 97.5947 26.4893C97.1309 25.9278 96.6914 25.7813 94.0303 25.3907C92.3701 25.1221 90.9785 24.878 90.9297 24.8292C90.8809 24.7803 90.2461 23.5352 89.5137 22.046C87.9023 18.7501 87.0723 18.1641 85.6562 19.2628ZM89.0498 28.2716C89.416 28.418 90.3193 28.6134 91.0273 28.6866L92.3213 28.8575L90.9541 30.2979C89.709 31.5919 89.5869 31.836 89.709 32.544C89.7822 32.9835 89.9287 33.8135 90.002 34.3995L90.1729 35.4981L88.8057 34.7169C87.0967 33.7403 86.5596 33.7403 84.6797 34.6925L83.1904 35.4493L83.3369 34.8633C83.4346 34.546 83.5566 33.6671 83.6543 32.9102L83.8252 31.543L82.5312 30.1758C81.8232 29.419 81.335 28.8087 81.457 28.8087C82.2871 28.8087 84.6064 28.296 84.8994 28.0274C85.0947 27.8809 85.583 27.0753 85.998 26.2696L86.7549 24.8048L87.5605 26.3917C88.1221 27.5391 88.5615 28.0762 89.0498 28.2716Z" fill="#FCFCFC"/>
<path d="M62.2677 37.4268C61.3155 37.9151 61.047 38.7207 61.047 41.3086C61.047 43.5791 61.0226 43.7012 60.5099 43.7988C60.1925 43.8477 58.8497 44.0674 57.507 44.2627C46.0568 46.0694 36.0714 54.7119 32.3605 66.0645C31.8234 67.7246 31.3595 70.044 30.8712 73.4131L30.7491 74.2188H27.9904C25.5489 74.2188 25.1827 74.2676 24.7921 74.707C24.1818 75.3906 24.2306 76.5625 24.8898 77.2217C25.3536 77.6856 25.7198 77.7588 28.088 77.832C30.6271 77.9297 30.7736 77.9541 30.8712 78.4424C30.92 78.7354 31.1398 80.0781 31.3351 81.4209C33.1417 92.8711 41.7599 102.832 53.1124 106.543C54.7726 107.104 57.1896 107.593 60.5099 108.057L61.2911 108.179V110.938C61.2911 113.379 61.34 113.745 61.7794 114.136C62.463 114.746 63.6349 114.697 64.2941 114.038C64.7579 113.574 64.8312 113.208 64.9044 110.84C65.0021 108.301 65.0265 108.154 65.5148 108.057C65.8077 108.008 67.1505 107.788 68.4933 107.593C79.9435 105.786 89.9044 97.168 93.6153 85.8154C94.1769 84.1553 94.6652 81.7383 95.129 78.418L95.2511 77.6367H98.0099C100.451 77.6367 100.817 77.5879 101.208 77.1484C101.818 76.4649 101.77 75.293 101.11 74.6338C100.647 74.1699 100.28 74.0967 97.9122 74.0234C95.3732 73.9258 95.2267 73.9014 95.129 73.4131C95.0802 73.1201 94.8605 71.7774 94.6652 70.4346C92.8585 58.9844 84.2159 48.999 72.8634 45.2881C71.2032 44.751 68.8839 44.2871 65.5148 43.7988L64.7091 43.6768V40.918C64.7091 38.5986 64.6359 38.1104 64.2941 37.793C63.6349 37.207 62.9513 37.085 62.2677 37.4268ZM61.1935 48.2178C61.2667 48.7061 61.5841 49.2432 61.8527 49.4385C63.0245 50.2441 64.7091 49.5361 64.7091 48.2422C64.7091 47.9004 64.7823 47.583 64.9044 47.5342C65.0021 47.461 66.0763 47.5586 67.2726 47.7295C76.2814 49.0723 84.2892 54.8828 88.4152 63.0615C89.6359 65.4297 90.7101 68.7012 91.0763 70.9229C91.2228 71.8506 91.3937 72.9248 91.4425 73.291C91.5402 73.877 91.4669 73.9746 90.6857 74.1211C90.2218 74.1943 89.6847 74.5117 89.4894 74.7803C88.6837 75.9522 89.3917 77.6367 90.6857 77.6367C91.0275 77.6367 91.3448 77.71 91.3937 77.8076C91.6378 78.1983 90.8077 82.6172 90.1241 84.7168C87.17 93.5059 80.5782 100.098 71.838 103.027C70.6661 103.418 68.9571 103.857 68.005 104.004C67.0773 104.15 66.003 104.321 65.6368 104.37C65.0509 104.468 64.9532 104.395 64.8068 103.613C64.7335 103.149 64.4161 102.612 64.1476 102.417C62.9757 101.611 61.2911 102.319 61.2911 103.613C61.2911 103.955 61.2179 104.272 61.1202 104.321C60.7296 104.565 56.3107 103.735 54.2111 103.052C46.7892 100.562 40.9786 95.5566 37.4874 88.6231C36.2911 86.2061 35.2902 83.2764 34.9239 80.8838C34.7775 79.9805 34.6066 78.9307 34.5577 78.5645C34.4601 77.9785 34.5333 77.8809 35.3146 77.7344C35.7784 77.6611 36.3155 77.3438 36.5109 77.0752C37.3165 75.9033 36.6085 74.2188 35.3146 74.2188C34.9728 74.2188 34.6554 74.1455 34.6066 74.0234C34.5333 73.9258 34.631 72.8516 34.8019 71.6553C36.1691 62.5733 41.9552 54.6387 50.3048 50.415C53.4054 48.8526 56.3839 47.9981 60.8517 47.3877C60.9493 47.3633 61.0958 47.7539 61.1935 48.2178Z" fill="#FCFCFC"/>
<path d="M58.6055 51.3916C48.4981 53.2227 40.6612 60.9131 38.586 71.045C38.1465 73.169 38.0733 74.1455 38.171 76.7823C38.3174 80.5909 38.9278 83.1543 40.4171 86.3282C41.8087 89.3311 43.2003 91.3086 45.3975 93.5303C51.9649 100.098 61.6085 102.466 70.4464 99.6827C76.9649 97.6319 82.2139 93.1397 85.2657 87.0362C87.878 81.8116 88.586 75.4639 87.17 69.8243C86.584 67.4561 84.9971 63.9649 83.5323 61.8164C78.1368 53.8575 68.127 49.6827 58.6055 51.3916ZM67.1016 55.0782C77.1358 57.1534 84.2403 65.7715 84.2403 75.9278C84.2403 87.6465 74.7188 97.168 63.0001 97.168C51.2813 97.168 41.7598 87.6465 41.7598 75.9278C41.7598 65.8448 48.7911 57.2266 58.7276 55.1026C60.9981 54.6143 64.7823 54.5899 67.1016 55.0782Z" fill="#FCFCFC"/>
<path d="M60.1196 56.5918C56.5063 57.8858 54.6996 61.5479 55.7739 65.3077C56.2377 66.8457 56.5795 67.4561 57.7758 68.9942L58.5815 69.9952L56.9457 70.2881C53.0395 71.0205 50.2319 73.9014 49.5727 77.9053C49.0844 80.8838 48.3032 89.1358 48.4496 89.7217C48.8159 91.1621 51.184 91.2842 51.7455 89.8926C51.892 89.5264 52.2094 87.1338 52.5024 84.5948C52.7709 82.0313 53.0395 79.419 53.1127 78.7598C53.4057 76.3184 54.9438 74.5118 57.2387 73.9258C58.9477 73.5108 66.6137 73.5108 68.2983 73.9258C69.7875 74.3164 71.4477 75.6592 71.9848 76.8799C72.1801 77.3682 72.644 80.4444 73.0346 83.6914C73.4252 86.9629 73.8647 89.8682 74.0112 90.1123C74.3774 90.7959 75.2807 91.0889 76.1352 90.7959C77.4535 90.3321 77.478 89.9414 76.6723 83.0567C76.0131 77.6123 75.8422 76.587 75.2319 75.3174C73.9623 72.6075 71.1547 70.5323 68.225 70.1661L66.9067 70.0196L67.7612 69.0674C69.2016 67.4805 69.9096 65.7959 70.0317 63.6475C70.227 60.5469 68.9819 58.3008 66.3207 56.958C64.6362 56.1036 61.9506 55.9327 60.1196 56.5918ZM64.6117 60.2051C65.8569 60.8155 66.4184 61.7432 66.4184 63.2569C66.4184 65.3077 64.978 67.3096 63.1713 67.7491C62.7074 67.8711 62.2192 67.7491 61.4379 67.2852C59.2651 66.0157 58.4106 62.6709 59.851 61.1084C61.0229 59.8389 63.0248 59.4483 64.6117 60.2051Z" fill="#FCFCFC"/>
<path d="M54.8211 78.4912C54.4793 78.833 54.2107 79.3701 54.2107 79.7607C54.1863 80.1269 54.0398 82.4218 53.8689 84.8388C53.698 87.2558 53.6248 89.4531 53.7225 89.7216C54.1863 90.9423 55.7976 91.3086 56.6766 90.4052C57.116 89.9658 57.2137 89.331 57.5066 85.1806C57.7019 82.5683 57.8484 80.1269 57.8728 79.7607C57.8728 78.9062 56.8963 77.8808 56.0418 77.8808C55.7 77.8808 55.1385 78.1494 54.8211 78.4912Z" fill="#FCFCFC"/>
<path d="M68.5662 78.1494C67.6629 78.6621 67.6141 79.1503 68.0291 84.5214C68.2489 87.3779 68.5174 89.8925 68.6151 90.1123C68.7371 90.332 69.1522 90.6494 69.5672 90.7959C70.1532 91.04 70.3973 91.04 71.0321 90.7226C71.4471 90.5029 71.8377 90.0634 71.911 89.7705C72.0086 89.4775 71.8866 86.914 71.6668 84.1064C71.325 79.5166 71.2518 78.955 70.7635 78.4423C70.202 77.8564 69.2742 77.7343 68.5662 78.1494Z" fill="#FCFCFC"/>
</svg>
