<svg width="22" height="22" viewBox="0 0 22 22" fill="none" xmlns="http://www.w3.org/2000/svg">
<path d="M7.28601 10.7158C7.28601 8.74311 8.9164 7.14355 10.9281 7.14355C12.9399 7.14355 14.5711 8.74311 14.5711 10.7158C14.5711 12.6884 12.9399 14.288 10.9281 14.288C8.9164 14.288 7.28601 12.6884 7.28601 10.7158ZM5.31667 10.7158C5.31667 13.7547 7.82892 16.2182 10.9281 16.2182C14.0274 16.2182 16.5396 13.7547 16.5396 10.7158C16.5396 7.67677 14.0274 5.21334 10.9281 5.21334C7.82892 5.21334 5.31667 7.67677 5.31667 10.7158ZM15.4504 4.99517C15.4503 5.2495 15.5271 5.49814 15.6711 5.70966C15.8151 5.92118 16.0198 6.08608 16.2594 6.1835C16.499 6.28092 16.7627 6.30648 17.0171 6.25697C17.2715 6.20745 17.5052 6.08507 17.6887 5.90531C17.8721 5.72555 17.9971 5.49647 18.0478 5.24705C18.0985 4.99764 18.0727 4.73908 17.9735 4.50407C17.8743 4.26907 17.7063 4.06817 17.4908 3.92679C17.2752 3.78541 17.0216 3.7099 16.7623 3.70979H16.7618C16.4141 3.70995 16.0807 3.84541 15.8348 4.08642C15.589 4.32742 15.4507 4.65427 15.4504 4.99517ZM6.51317 19.4381C5.44772 19.3905 4.86862 19.2165 4.48377 19.0695C3.97356 18.8747 3.60952 18.6428 3.22677 18.268C2.84403 17.8932 2.6071 17.5365 2.40935 17.0363C2.25933 16.6591 2.08185 16.091 2.03342 15.0463C1.98044 13.9168 1.96986 13.5775 1.96986 10.7158C1.96986 7.85422 1.98132 7.51586 2.03342 6.38539C2.08194 5.34065 2.26073 4.77374 2.40935 4.39543C2.60798 3.89513 2.84455 3.53817 3.22677 3.16286C3.609 2.78755 3.97268 2.55524 4.48377 2.36132C4.86844 2.21422 5.44772 2.04019 6.51317 1.9927C7.66508 1.94075 8.01111 1.93038 10.9281 1.93038C13.8452 1.93038 14.1915 1.94161 15.3444 1.9927C16.4099 2.04028 16.988 2.21559 17.3738 2.36132C17.884 2.55524 18.2481 2.78807 18.6308 3.16286C19.0136 3.53766 19.2496 3.89513 19.4482 4.39543C19.5983 4.77263 19.7757 5.34065 19.8242 6.38539C19.8771 7.51586 19.8877 7.85422 19.8877 10.7158C19.8877 13.5775 19.8771 13.9158 19.8242 15.0463C19.7756 16.091 19.5973 16.6589 19.4482 17.0363C19.2496 17.5365 19.013 17.8935 18.6308 18.268C18.2486 18.6424 17.884 18.8747 17.3738 19.0695C16.9891 19.2166 16.4099 19.3906 15.3444 19.4381C14.1925 19.4901 13.8465 19.5004 10.9281 19.5004C8.0098 19.5004 7.66473 19.4901 6.51317 19.4381ZM6.42269 0.0648946C5.25932 0.116845 4.46436 0.297727 3.77012 0.56262C3.05114 0.836172 2.44248 1.20317 1.83427 1.79862C1.22605 2.39407 0.852744 2.99184 0.573771 3.69685C0.303627 4.37803 0.11916 5.15711 0.0661808 6.29786C0.0123269 7.44042 0 7.8057 0 10.7158C0 13.6258 0.0123269 13.9911 0.0661808 15.1336C0.11916 16.2745 0.303627 17.0535 0.573771 17.7347C0.852744 18.4392 1.22614 19.0377 1.83427 19.6329C2.44239 20.2281 3.05114 20.5946 3.77012 20.8689C4.46567 21.1338 5.25932 21.3147 6.42269 21.3666C7.5885 21.4186 7.96041 21.4315 10.9281 21.4315C13.8959 21.4315 14.2684 21.4194 15.4336 21.3666C16.597 21.3147 17.3915 21.1338 18.0862 20.8689C18.8047 20.5946 19.4138 20.2283 20.022 19.6329C20.6302 19.0374 21.0027 18.4392 21.2825 17.7347C21.5526 17.0535 21.738 16.2744 21.7901 15.1336C21.8431 13.9902 21.8554 13.6258 21.8554 10.7158C21.8554 7.8057 21.8431 7.44042 21.7901 6.29786C21.7371 5.15702 21.5526 4.3776 21.2825 3.69685C21.0027 2.99227 20.6293 2.39501 20.022 1.79862C19.4148 1.20222 18.8047 0.836172 18.087 0.56262C17.3915 0.297727 16.597 0.115987 15.4345 0.0648946C14.2693 0.0129446 13.8967 0 10.929 0C7.96128 0 7.5885 0.0120874 6.42269 0.0648946Z" fill="#5A5A5A"/>
</svg>
