<svg width="182" height="108" viewBox="0 0 182 108" fill="none" xmlns="http://www.w3.org/2000/svg">
<path d="M1.63645 107.992C-0.890418 94.8705 -0.486812 81.3543 2.8185 68.4066C6.12381 55.4589 12.2494 43.3986 20.7587 33.0853C29.268 22.772 39.9514 14.4597 52.0474 8.74089C64.1434 3.02211 77.3541 0.0376919 90.7379 0.000354716C104.122 -0.0369825 117.349 2.87369 129.477 8.52488C141.604 14.1761 152.334 22.4286 160.901 32.6943C169.468 42.96 175.661 54.986 179.039 67.915C182.417 80.8441 182.921 94.8647 180.468 108H168.841C170.997 96.4592 171.319 82.0576 168.351 70.698C165.383 59.3384 159.942 48.7722 152.415 39.7527C144.888 30.7331 135.461 23.4823 124.805 18.5171C114.149 13.5519 102.528 10.9946 90.7687 11.0274C79.0096 11.0602 67.4025 13.6824 56.7749 18.7069C46.1472 23.7315 36.7606 31.0348 29.2843 40.0962C21.8079 49.1576 16.4259 59.7539 13.5218 71.1299C10.6177 82.5059 9.91215 96.4633 12.1323 107.992H1.63645Z" fill="#FFCC73"/>
<path d="M16.6823 108C14.5766 97.0654 14.76 82.9354 17.5144 72.1456C20.2688 61.3559 25.3735 51.3056 32.4646 42.7112C39.5556 34.1168 48.4585 27.1898 58.5385 22.4242C68.6185 17.6586 79.6274 15.1715 90.7805 15.1404C101.934 15.1093 112.956 17.5349 123.063 22.2442C133.169 26.9535 142.111 33.8307 149.25 42.3854C156.389 50.9401 161.55 60.9618 164.365 71.736C167.179 82.5102 167.347 97.0538 165.303 108H156.709C158.505 98.3826 157.931 83.5214 155.458 74.0551C152.985 64.5888 148.451 55.7836 142.178 48.2674C135.906 40.7511 128.05 34.7088 119.17 30.5711C110.29 26.4334 100.606 24.3023 90.8063 24.3296C81.007 24.357 71.3344 26.5421 62.478 30.7292C53.6216 34.9164 45.7995 41.0025 39.5692 48.5536C33.3389 56.1048 28.8539 64.9351 26.4338 74.415C24.0137 83.895 23.4259 98.3927 25.276 108H16.6823Z" fill="#A3CECE"/>
<path d="M32.3525 108C30.668 99.2525 30.006 84.5167 32.2095 75.8849C34.4131 67.2531 38.4968 59.2129 44.1697 52.3374C49.8425 45.4618 56.9648 39.9203 65.0288 36.1078C73.0928 32.2953 81.8999 30.3056 90.8224 30.2808C99.745 30.2559 108.563 32.1963 116.648 35.9638C124.734 39.7312 131.887 45.2329 137.598 52.0767C143.309 58.9205 147.438 66.9378 149.69 75.5572C151.942 84.1766 151.325 99.2433 149.69 108H141.543C142.98 100.306 144.543 84.9856 142.564 77.4125C140.586 69.8394 136.959 62.7953 131.941 56.7823C126.923 50.7693 120.638 45.9354 113.534 42.6253C106.43 39.3151 98.6824 37.6102 90.843 37.6321C83.0036 37.654 75.2656 39.4021 68.1804 42.7518C61.0953 46.1015 54.8376 50.9704 49.8534 57.0113C44.8691 63.0522 41.2811 70.1165 39.3451 77.7004C37.409 85.2844 38.9607 100.314 40.4407 108H32.3525Z" fill="#E8B4CA"/>
<path d="M30.096 87.336V90H19.932V72.648H23.16V87.336H30.096ZM35.6408 90H32.4008V72.648H35.6408V90ZM54.1538 72.648V90H52.4978C52.2418 90 52.0258 89.96 51.8498 89.88C51.6818 89.792 51.5178 89.648 51.3578 89.448L42.2978 77.88C42.3458 78.408 42.3698 78.896 42.3698 79.344V90H39.5258V72.648H41.2178C41.3538 72.648 41.4698 72.656 41.5658 72.672C41.6698 72.68 41.7578 72.704 41.8298 72.744C41.9098 72.776 41.9858 72.828 42.0578 72.9C42.1298 72.964 42.2098 73.052 42.2978 73.164L51.3938 84.78C51.3698 84.5 51.3498 84.224 51.3338 83.952C51.3178 83.68 51.3098 83.428 51.3098 83.196V72.648H54.1538ZM67.1859 83.448L65.0739 77.676C64.9699 77.42 64.8619 77.116 64.7499 76.764C64.6379 76.412 64.5259 76.032 64.4139 75.624C64.3099 76.032 64.2019 76.416 64.0899 76.776C63.9779 77.128 63.8699 77.436 63.7659 77.7L61.6659 83.448H67.1859ZM72.8859 90H70.3899C70.1099 90 69.8819 89.932 69.7059 89.796C69.5299 89.652 69.3979 89.476 69.3099 89.268L68.0139 85.728H60.8259L59.5299 89.268C59.4659 89.452 59.3419 89.62 59.1579 89.772C58.9739 89.924 58.7459 90 58.4739 90H55.9539L62.7819 72.648H66.0699L72.8859 90ZM86.634 73.836C86.634 74.204 86.53 74.54 86.322 74.844L77.418 87.42H86.43V90H73.23V88.728C73.23 88.568 73.258 88.416 73.314 88.272C73.37 88.12 73.442 87.98 73.53 87.852L82.458 75.216H73.794V72.648H86.634V73.836ZM98.3813 83.448L96.2693 77.676C96.1653 77.42 96.0573 77.116 95.9453 76.764C95.8333 76.412 95.7213 76.032 95.6093 75.624C95.5053 76.032 95.3973 76.416 95.2853 76.776C95.1733 77.128 95.0653 77.436 94.9613 77.7L92.8613 83.448H98.3813ZM104.081 90H101.585C101.305 90 101.077 89.932 100.901 89.796C100.725 89.652 100.593 89.476 100.505 89.268L99.2093 85.728H92.0213L90.7253 89.268C90.6613 89.452 90.5373 89.62 90.3533 89.772C90.1693 89.924 89.9413 90 89.6693 90H87.1492L93.9773 72.648H97.2653L104.081 90ZM104.977 88.368C104.977 88.12 105.021 87.884 105.109 87.66C105.205 87.436 105.333 87.244 105.493 87.084C105.653 86.924 105.845 86.796 106.069 86.7C106.293 86.604 106.533 86.556 106.789 86.556C107.045 86.556 107.281 86.604 107.497 86.7C107.721 86.796 107.913 86.924 108.073 87.084C108.241 87.244 108.373 87.436 108.469 87.66C108.565 87.884 108.613 88.12 108.613 88.368C108.613 88.624 108.565 88.864 108.469 89.088C108.373 89.304 108.241 89.492 108.073 89.652C107.913 89.812 107.721 89.936 107.497 90.024C107.281 90.12 107.045 90.168 106.789 90.168C106.533 90.168 106.293 90.12 106.069 90.024C105.845 89.936 105.653 89.812 105.493 89.652C105.333 89.492 105.205 89.304 105.109 89.088C105.021 88.864 104.977 88.624 104.977 88.368ZM114.801 79.92H115.557C115.861 79.92 116.113 79.88 116.313 79.8C116.513 79.712 116.685 79.576 116.829 79.392L121.617 73.332C121.817 73.076 122.025 72.9 122.241 72.804C122.465 72.7 122.745 72.648 123.081 72.648H125.865L120.021 79.86C119.677 80.3 119.321 80.612 118.953 80.796C119.217 80.892 119.453 81.028 119.661 81.204C119.877 81.372 120.081 81.596 120.273 81.876L126.297 90H123.453C123.069 90 122.781 89.948 122.589 89.844C122.405 89.732 122.249 89.572 122.121 89.364L117.213 82.956C117.061 82.74 116.885 82.588 116.685 82.5C116.485 82.412 116.197 82.368 115.821 82.368H114.801V90H111.573V72.648H114.801V79.92ZM131.266 90H128.026V72.648H131.266V90ZM150.559 81.324C150.559 82.596 150.347 83.764 149.923 84.828C149.499 85.892 148.903 86.808 148.135 87.576C147.367 88.344 146.443 88.94 145.363 89.364C144.283 89.788 143.083 90 141.763 90H135.151V72.648H141.763C143.083 72.648 144.283 72.864 145.363 73.296C146.443 73.72 147.367 74.316 148.135 75.084C148.903 75.844 149.499 76.756 149.923 77.82C150.347 78.884 150.559 80.052 150.559 81.324ZM147.247 81.324C147.247 80.372 147.119 79.52 146.863 78.768C146.615 78.008 146.251 77.368 145.771 76.848C145.299 76.32 144.723 75.916 144.043 75.636C143.371 75.356 142.611 75.216 141.763 75.216H138.391V87.432H141.763C142.611 87.432 143.371 87.292 144.043 87.012C144.723 86.732 145.299 86.332 145.771 85.812C146.251 85.284 146.615 84.644 146.863 83.892C147.119 83.132 147.247 82.276 147.247 81.324ZM162.649 75.804C162.553 75.972 162.449 76.096 162.337 76.176C162.233 76.248 162.101 76.284 161.941 76.284C161.773 76.284 161.589 76.224 161.389 76.104C161.197 75.976 160.965 75.836 160.693 75.684C160.421 75.532 160.101 75.396 159.733 75.276C159.373 75.148 158.945 75.084 158.449 75.084C158.001 75.084 157.609 75.14 157.273 75.252C156.937 75.356 156.653 75.504 156.421 75.696C156.197 75.888 156.029 76.12 155.917 76.392C155.805 76.656 155.749 76.948 155.749 77.268C155.749 77.676 155.861 78.016 156.085 78.288C156.317 78.56 156.621 78.792 156.997 78.984C157.373 79.176 157.801 79.348 158.281 79.5C158.761 79.652 159.253 79.816 159.757 79.992C160.261 80.16 160.753 80.36 161.233 80.592C161.713 80.816 162.141 81.104 162.517 81.456C162.893 81.8 163.193 82.224 163.417 82.728C163.649 83.232 163.765 83.844 163.765 84.564C163.765 85.348 163.629 86.084 163.357 86.772C163.093 87.452 162.701 88.048 162.181 88.56C161.669 89.064 161.041 89.464 160.297 89.76C159.553 90.048 158.701 90.192 157.741 90.192C157.189 90.192 156.645 90.136 156.109 90.024C155.573 89.92 155.057 89.768 154.561 89.568C154.073 89.368 153.613 89.128 153.181 88.848C152.749 88.568 152.365 88.256 152.029 87.912L152.977 86.364C153.057 86.252 153.161 86.16 153.289 86.088C153.417 86.008 153.553 85.968 153.697 85.968C153.897 85.968 154.113 86.052 154.345 86.22C154.577 86.38 154.853 86.56 155.173 86.76C155.493 86.96 155.865 87.144 156.289 87.312C156.721 87.472 157.237 87.552 157.837 87.552C158.757 87.552 159.469 87.336 159.973 86.904C160.477 86.464 160.729 85.836 160.729 85.02C160.729 84.564 160.613 84.192 160.381 83.904C160.157 83.616 159.857 83.376 159.481 83.184C159.105 82.984 158.677 82.816 158.197 82.68C157.717 82.544 157.229 82.396 156.733 82.236C156.237 82.076 155.749 81.884 155.269 81.66C154.789 81.436 154.361 81.144 153.985 80.784C153.609 80.424 153.305 79.976 153.073 79.44C152.849 78.896 152.737 78.228 152.737 77.436C152.737 76.804 152.861 76.188 153.109 75.588C153.365 74.988 153.733 74.456 154.213 73.992C154.693 73.528 155.285 73.156 155.989 72.876C156.693 72.596 157.501 72.456 158.413 72.456C159.437 72.456 160.381 72.616 161.245 72.936C162.109 73.256 162.845 73.704 163.453 74.28L162.649 75.804Z" fill="#5A5A5A"/>
</svg>
