<svg width="126" height="125" viewBox="0 0 126 125" fill="none" xmlns="http://www.w3.org/2000/svg">
<path d="M76.1836 10.2539C75.8906 10.5469 75.6953 11.0596 75.6953 11.5478C75.6953 12.5732 75.0606 14.6973 74.3525 16.1133C72.8145 19.1406 70.4951 21.0937 65.3926 23.706C63.2686 24.7803 60.583 26.3428 59.4111 27.1728C51.0371 33.1055 47.082 41.626 48.376 50.9277C49.1572 56.5185 51.4033 61.4502 56.042 67.749C58.459 71.0205 59.1914 72.2412 59.6797 73.9502C60.0947 75.3418 60.1924 78.2715 59.875 78.7842C59.7773 78.9551 58.0439 80.3467 56.042 81.8848L52.3799 84.6924L52.209 82.7148C51.8916 79.1504 50.2314 76.6846 47.4971 75.7568C45.4951 75.0732 43.3467 75.2686 39.6113 76.3916C34.0205 78.1006 30.7246 78.2471 27.917 76.9287C24.8897 75.4883 23.4736 73.6328 20.1533 66.7969C18.0537 62.5 17.6387 61.8164 16.1494 60.2295C15.2217 59.2773 13.8545 58.0811 13.0977 57.6172C12.3408 57.1533 11.7305 56.6894 11.7305 56.5918C11.7305 56.3477 15.124 55.0049 17.1748 54.4678C23.3271 52.8564 29.5283 53.2715 34.582 55.6396C37.0479 56.8115 38.5127 57.7881 40.3926 59.5459C42.1748 61.2549 43.6641 63.1592 44.8115 65.2832L45.7148 66.9189L43.6885 65.5273C40.2217 63.1592 36.1201 61.4746 31.9697 60.6689C29.3818 60.1807 28.918 60.2051 28.332 60.791C27.209 61.9141 28.0391 63.0859 30.1387 63.3301C32.3604 63.623 35.8272 64.6484 38.0244 65.6738C41.0273 67.0898 43.249 68.6523 46.0811 71.3623C48.1807 73.3887 48.6689 73.7549 49.2549 73.6816C49.6699 73.6328 50.0606 73.3643 50.2803 72.9492C50.6221 72.3633 50.5977 72.1191 50.1094 70.3857C48.5957 65.2344 46.4961 61.6211 42.8584 57.9834C39.2451 54.3701 36.2178 52.6367 31.0664 51.2207C28.4541 50.4883 21.6426 50.4394 18.5664 51.123C15.6123 51.7578 12.4385 52.8564 9.89941 54.126C7.40918 55.3467 6.60352 56.0059 6.60352 56.7627C6.60352 57.4707 7.04297 57.8125 9.65527 59.082C12.9268 60.6445 14.9043 62.7197 16.6133 66.2842C19.7871 72.998 20.9834 74.9756 23.2051 77.1484C25.5244 79.4434 28.8203 80.7861 32.1406 80.8105C34.0449 80.8105 37.2188 80.2002 40.3193 79.1992C44.9824 77.7344 47.2773 78.0029 48.5225 80.2002C49.2061 81.4209 49.4258 83.0566 49.2061 85.2539C49.0352 86.792 48.9375 87.085 48.1074 87.9883C45.666 90.6738 45.2754 93.8721 47.1064 96.5576L47.7656 97.5342L45.8125 97.2168C44.7139 97.0459 41.3691 96.8506 38.3418 96.7773C32.9951 96.6309 30.8223 96.8262 28.9912 97.5342C28.6738 97.6807 28.5762 97.583 28.5762 97.0947C28.5762 96.0937 28.8203 95.7031 29.8213 95.1904C32.1895 93.9941 37.7314 93.5547 42.0527 94.2139C44.1768 94.5557 44.8359 94.3603 45.0801 93.3838C45.2998 92.5293 44.6406 91.6504 43.6641 91.4551C41.4668 91.0156 36.7061 90.8203 34.4111 91.0645C29.7725 91.5771 27.1602 92.8223 25.9883 95.0195C25.5977 95.7764 25.5244 97.8271 25.8662 98.7061C26.0615 99.1943 26.0127 99.4141 25.5977 99.7803C24.7188 100.562 24.1816 101.953 24.1816 103.369C24.1816 104.541 24.2793 104.834 24.9629 105.591C25.3779 106.079 26.3545 106.787 27.1357 107.178C29.9189 108.594 37.6094 110.596 45.9102 112.061C48.2539 112.476 52.1113 113.184 54.4551 113.647C61.0469 114.917 62.3408 115.088 66.418 115.088C70.7148 115.088 72.6924 114.722 74.9873 113.501C77.3066 112.256 85.168 105.908 97.79 95.0928C106.799 87.3535 107.678 86.8652 113.732 86.2061C115.905 85.9619 116.711 85.5469 116.711 84.5947C116.711 83.7158 115.954 83.252 114.489 83.252C112.365 83.252 108.703 83.9355 106.945 84.6924C104.089 85.8887 103.991 85.9619 90.9297 97.0459C79.6992 106.592 75.0606 110.254 72.9609 111.206C69.665 112.695 64.3672 112.549 54.5772 110.693C52.8438 110.352 49.377 109.717 46.8867 109.253C36.8525 107.422 29.626 105.518 27.8682 104.272C26.7695 103.491 26.8428 102.588 28.0635 101.489C29.7969 99.9268 30.8711 99.7314 37.3652 99.7314C41.5156 99.7559 43.8106 99.8535 45.666 100.146C47.082 100.391 50.207 100.684 52.624 100.83C55.041 100.977 58.1172 101.27 59.46 101.489C63.1465 102.051 63.3418 102.075 63.6348 101.88C63.7813 101.782 64.709 100.073 65.7344 98.1201C69.0791 91.6016 70.3975 90.0879 75.207 87.3291C78.1611 85.6201 78.2588 85.5469 78.332 84.668C78.4053 83.9355 78.3076 83.6914 77.7705 83.3496C76.9893 82.8369 77.5752 82.5195 65.0508 89.8926C59.6797 93.042 54.9678 95.8008 54.5283 96.0449C52.6484 96.9971 50.2559 96.2891 49.3037 94.4824C48.3272 92.6758 48.9863 91.0156 51.4522 89.0381C64.6357 78.5889 77.2578 69.8242 82.5801 67.3828C84.6797 66.4551 87.0234 66.1621 92.7363 66.1621C99.0108 66.1621 111.34 66.8457 117.102 67.5293C118.176 67.6514 118.444 67.6025 118.884 67.1631C119.519 66.5283 119.543 65.8936 118.957 65.21C118.591 64.7461 118.029 64.6484 112.805 64.209C100.061 63.1592 87.7803 62.9394 84.1426 63.7451C81.2373 64.3555 72.4482 69.5312 65.3193 74.8047L63.1465 76.416L62.8535 74.7803C62.3408 71.7773 61.5596 70.2637 57.9463 65.3809C56.6523 63.5986 55.0654 61.1572 54.4307 59.9365C51.5986 54.5654 50.4512 48.4863 51.3789 43.6523C52.7949 36.2793 57.6045 30.957 67.2725 26.0498C72.3262 23.4863 75.3291 20.7764 77.0381 17.2119C77.4775 16.2598 77.917 15.2832 78.0147 15.0146C78.1367 14.5996 78.2832 14.7217 79.04 15.8691C81.5547 19.7754 83.2149 25 84.1182 31.8115C84.875 37.5976 84.4356 41.9678 82.7022 46.2158C80.1875 52.3682 74.2793 58.2764 67.2969 61.6455C64.2939 63.0859 63.8545 63.1836 63.6348 62.4512C63.5371 62.1338 63.3906 60.1318 63.3174 57.9834C63.1221 52.0019 64.1231 47.29 66.6621 42.2363C67.7852 40.0146 67.8096 39.2334 66.7842 38.7695C65.6367 38.2568 65.0264 38.8184 63.7324 41.5771C61.4131 46.5088 60.3145 51.3184 60.3145 56.5918C60.3145 59.7168 60.9004 64.624 61.3887 65.6494C61.999 66.9434 63.3906 66.6748 68.3711 64.3066C72.5215 62.3047 75.6465 60.1318 78.7715 57.0312C82.9219 52.9053 85.1924 49.0723 86.6084 43.75C87.1699 41.6504 87.2432 40.8935 87.2676 36.9873C87.292 33.8135 87.1699 31.8603 86.8525 29.9072C85.3633 20.8252 81.9697 13.1348 78.3076 10.4736C77.1602 9.64355 76.8428 9.59472 76.1836 10.2539ZM63.4639 96.2158C62.7559 97.6074 62.1699 98.7793 62.1455 98.8281C62.0479 98.9258 57.3848 98.2422 57.2383 98.0957C57.1406 97.9736 64.5137 93.5303 64.6357 93.6279C64.6846 93.6523 64.1475 94.7998 63.4639 96.2158Z" fill="#FCFCFC"/>
</svg>
