<svg width="21" height="18" viewBox="0 0 21 18" fill="none" xmlns="http://www.w3.org/2000/svg">
<path d="M20.3268 2.88999C19.6663 3.16887 18.972 3.36307 18.2609 3.46778C18.5934 3.41187 19.0825 2.82475 19.2772 2.58711C19.573 2.22866 19.7985 1.81945 19.9421 1.38027C19.9421 1.34766 19.9753 1.30106 19.9421 1.27776C19.9254 1.26879 19.9066 1.26409 19.8875 1.26409C19.8684 1.26409 19.8496 1.26879 19.8329 1.27776C19.0608 1.68801 18.239 2.00111 17.3871 2.20969C17.3574 2.21859 17.3258 2.21938 17.2957 2.212C17.2655 2.20461 17.238 2.18931 17.2161 2.16775C17.1498 2.09027 17.0784 2.01712 17.0024 1.94875C16.6549 1.64329 16.2607 1.39328 15.8341 1.20787C15.2583 0.976088 14.6363 0.875709 14.0152 0.914312C13.4125 0.951658 12.8241 1.11027 12.2865 1.38027C11.7572 1.66494 11.2919 2.05167 10.9188 2.51722C10.5263 2.99639 10.2429 3.55248 10.0877 4.14809C9.95972 4.71463 9.9452 5.30017 10.0449 5.87214C10.0449 5.97 10.0449 5.98398 9.95946 5.97C6.57334 5.48074 3.7951 4.30185 1.52502 1.77168C1.42529 1.65985 1.37305 1.65985 1.29232 1.77168C0.304501 3.24412 0.784162 5.57393 2.01893 6.72485C2.18515 6.87862 2.35612 7.02773 2.53659 7.16752C1.97045 7.12808 1.41814 6.97756 0.912388 6.72485C0.817406 6.66428 0.765166 6.6969 0.760416 6.80873C0.746954 6.96377 0.746954 7.11965 0.760416 7.27469C0.85951 8.01771 1.15795 8.72158 1.62523 9.31431C2.09251 9.90705 2.71185 10.3674 3.41992 10.6483C3.59253 10.7208 3.77239 10.7755 3.95657 10.8113C3.43247 10.9126 2.89494 10.9283 2.36562 10.8579C2.25164 10.8346 2.2089 10.8952 2.25164 11.0024C2.94976 12.8662 4.46473 13.4347 5.57602 13.7516C5.72799 13.7749 5.87997 13.7749 6.05093 13.8121C6.05093 13.8121 6.05093 13.8121 6.02244 13.8401C5.69475 14.4272 4.36975 14.8233 3.76186 15.0283C2.65231 15.4193 1.46932 15.5688 0.295003 15.4663C0.109787 15.4383 0.0670452 15.443 0.019554 15.4663C-0.0279372 15.4896 0.019554 15.5408 0.0717943 15.5874C0.30925 15.7412 0.546706 15.8763 0.79366 16.0068C1.52885 16.4002 2.30608 16.7128 3.11123 16.9387C7.28096 18.0664 11.9731 17.2369 15.1028 14.1849C17.5628 11.7899 18.4271 8.48619 18.4271 5.17786C18.4271 5.05205 18.5839 4.9775 18.6741 4.91226C19.2965 4.43647 19.8452 3.87456 20.303 3.24412C20.3823 3.15014 20.423 3.03049 20.417 2.90863C20.417 2.83873 20.417 2.85271 20.3268 2.88999Z" fill="#5A5A5A"/>
</svg>
